# xmcd
#
# Track frame offsets:
#	150
#	12879
#	21877
#	37726
#	54923
#	68859
#	85429
#	101395
#	114915
#	131958
#	144866
#	162531
#	178042
#	192765
#
# Disc length: 2758 seconds
#
# Revision: 0
# Processed by: cddbd v1.5.2PL0 Copyright (c) Steve Scherf et al.
# Submitted via: EZCDAudioConverter 2.2.2.1
#
DISCID=b10ac40e
DTITLE=Shane Morkin - På afveje
DYEAR=2016
DGENRE=country
TTITLE0=Morgensol
TTITLE1=Totusind tanker
TTITLE2=Afsked ved havnen
TTITLE3=Den gule enke
TTITLE4=Lille soldat
TTITLE5=Gift dig med mig
TTITLE6=Svenskekrigen
TTITLE7=Smæk mig i måsen
TTITLE8=Ritmesterens vise
TTITLE9=Jeg er kun en spillemand
TTITLE10=Sidder og savner dig
TTITLE11=Alle mine drømme
TTITLE12=Dit sorte svin
TTITLE13=Pigen der hjemme
EXTD=
EXTT0=
EXTT1=
EXTT2=
EXTT3=
EXTT4=
EXTT5=
EXTT6=
EXTT7=
EXTT8=
EXTT9=
EXTT10=
EXTT11=
EXTT12=
EXTT13=
PLAYORDER=
